# xmcd
#
# Track frame offsets:
#	150
#	4371
#	8431
#	13016
#	15098
#	19739
#	20668
#	26678
#	27128
#	30213
#	38979
#	44745
#	47257
#	50459
#	56537
#	59355
#	60085
#	62369
#	67532
#
# Disc length: 953 seconds
#
# Revision: 1
# Processed by: cddbd v1.5.2PL0 Copyright (c) Steve Scherf et al.
# Submitted via: audiograbber 1.83.01
#
DISCID=d003b713
DTITLE=Eastwood - Discography 2013 -2014
DYEAR=2014
DGENRE=Grindcore
TTITLE0=Intjehirnjeschiss
TTITLE1=Lokusuicide
TTITLE2=Fremde Partys sind immer die besten
TTITLE3=Go, go Bauer Ranger
TTITLE4=Infektion
TTITLE5=I Want To Kill The President (Municipal Waste Cover)
TTITLE6=Sexfalle Karriereleiter
TTITLE7=Chainsaw to the Dick
TTITLE8=Spielverderber
TTITLE9=Stoned Like Stonedar
TTITLE10=Ich bin Ghetto
TTITLE11=Glatzenhobel
TTITLE12=Oben ohne
TTITLE13=Profilneurose
TTITLE14=Ich wuenscht, dau waers vreckt
TTITLE15=Heimat im Herzen, scheiﬂe im Kopf
TTITLE16=Bullshit Tradition (Dropdead Cover)
TTITLE17=Vorwand Fuﬂball
TTITLE18=Political Self-Service (Mindflair Cover-Live GTNS 2013)
EXTD=
EXTT0=
EXTT1=
EXTT2=
EXTT3=
EXTT4=
EXTT5=
EXTT6=
EXTT7=
EXTT8=
EXTT9=
EXTT10=
EXTT11=
EXTT12=
EXTT13=
EXTT14=
EXTT15=
EXTT16=
EXTT17=
EXTT18=
PLAYORDER=
